<svg xmlns="http://www.w3.org/2000/svg" xmlns:xlink="http://www.w3.org/1999/xlink" width="1024" zoomAndPan="magnify" viewBox="0 0 768 767.999994" height="1024" preserveAspectRatio="xMidYMid meet" version="1.0"><defs><clipPath id="7ee42a7913"><path d="M 22 21 L 746.949219 21 L 746.949219 747.785156 L 22 747.785156 Z M 22 21 " clip-rule="nonzero"/></clipPath></defs><rect x="-76.8" width="921.6" fill="#ffffff" y="-76.799999" height="921.599993" fill-opacity="1"/><rect x="-76.8" width="921.6" fill="#ffffff" y="-76.799999" height="921.599993" fill-opacity="1"/><rect x="-76.8" width="921.6" fill="#ffffff" y="-76.799999" height="921.599993" fill-opacity="1"/><g clip-path="url(#7ee42a7913)"><path fill="#000000" d="M 731.871094 299.683594 C 731.980469 299.195312 732.054688 298.6875 732.089844 298.179688 L 746.339844 197.195312 C 746.503906 196.398438 746.613281 195.5625 746.613281 194.707031 C 746.613281 188.226562 741.347656 182.960938 734.867188 182.960938 L 642.421875 182.960938 C 642.40625 182.960938 642.386719 182.960938 642.367188 182.960938 C 642.351562 182.960938 642.332031 182.960938 642.3125 182.960938 L 549.976562 182.960938 C 549.941406 182.960938 549.90625 182.960938 549.871094 182.960938 C 549.832031 182.960938 549.796875 182.960938 549.761719 182.960938 L 457.535156 182.960938 C 457.480469 182.960938 457.425781 182.960938 457.371094 182.960938 C 457.316406 182.960938 457.261719 182.960938 457.207031 182.960938 L 365.089844 182.960938 C 365.015625 182.960938 364.945312 182.945312 364.871094 182.945312 C 364.796875 182.945312 364.726562 182.960938 364.652344 182.960938 L 272.625 182.960938 C 272.535156 182.960938 272.445312 182.945312 272.371094 182.945312 C 272.28125 182.945312 272.191406 182.960938 272.117188 182.960938 L 192.304688 182.960938 L 143.425781 54.273438 C 142.027344 50.550781 138.921875 47.972656 135.367188 47.03125 L 37.167969 21.921875 C 30.90625 20.324219 24.515625 24.117188 22.917969 30.398438 C 21.320312 36.679688 25.113281 43.070312 31.394531 44.652344 L 123.675781 68.253906 L 190.109375 243.113281 L 250.898438 403.136719 C 251.042969 403.644531 251.242188 404.136719 251.460938 404.625 L 261.117188 430.042969 C 261.28125 430.570312 261.480469 431.078125 261.699219 431.585938 L 288.5625 502.304688 L 261.15625 528.554688 C 237.359375 551.339844 221.964844 573.09375 215.050781 591.609375 C 210.585938 603.574219 209.496094 614.542969 211.800781 624.019531 C 214.324219 634.496094 220.675781 642.828125 230.824219 648.421875 C 234.199219 650.273438 237.976562 651.816406 242.1875 652.996094 C 233.382812 663.054688 228.027344 676.199219 228.027344 690.597656 C 228.027344 705.992188 234.144531 719.992188 244.09375 730.285156 L 244.761719 731.027344 C 255.109375 741.378906 269.394531 747.769531 285.167969 747.769531 C 300.941406 747.769531 315.246094 741.359375 325.574219 731.027344 L 325.574219 730.972656 C 335.902344 720.625 342.308594 706.335938 342.308594 690.597656 C 342.308594 677.558594 337.917969 665.542969 330.527344 655.917969 L 574.71875 655.917969 C 567.804688 665.378906 563.699219 677.015625 563.699219 689.617188 C 563.699219 705.011719 569.816406 719.011719 579.765625 729.304688 L 580.4375 730.046875 C 590.78125 740.398438 605.066406 746.789062 620.839844 746.789062 C 636.613281 746.789062 650.917969 740.378906 661.246094 730.046875 L 661.246094 729.996094 C 671.574219 719.644531 677.980469 705.355469 677.980469 689.617188 C 677.980469 677.035156 673.878906 665.378906 666.964844 655.917969 L 688.746094 655.917969 C 695.226562 655.917969 700.488281 650.652344 700.488281 644.171875 C 700.488281 637.691406 695.226562 632.425781 688.746094 632.425781 C 688.746094 632.425781 265.566406 632.425781 265.566406 632.425781 C 255.253906 632.425781 247.449219 630.808594 242.132812 627.867188 C 238.03125 625.597656 235.507812 622.402344 234.5625 618.5 C 233.382812 613.597656 234.179688 607.242188 236.976562 599.746094 C 242.695312 584.441406 256.164062 565.738281 277.398438 545.40625 L 307.457031 516.609375 L 365.253906 510.835938 C 365.777344 510.816406 366.304688 510.765625 366.832031 510.671875 L 457.769531 501.59375 C 458.296875 501.578125 458.804688 501.523438 459.3125 501.449219 L 550.269531 492.371094 C 550.796875 492.355469 551.304688 492.300781 551.792969 492.226562 L 642.769531 483.148438 C 643.277344 483.132812 643.785156 483.078125 644.273438 483.003906 L 697.257812 477.71875 C 702.703125 477.394531 707.351562 473.253906 708.132812 467.644531 L 717.371094 402.210938 C 717.480469 401.71875 717.550781 401.210938 717.585938 400.6875 Z M 309.019531 714.433594 C 302.9375 720.515625 294.5 724.292969 285.203125 724.292969 C 275.910156 724.292969 267.488281 720.515625 261.390625 714.433594 L 260.847656 713.925781 C 255.074219 707.878906 251.535156 699.65625 251.535156 690.597656 C 251.535156 681.265625 255.292969 672.839844 261.390625 666.777344 C 267.472656 660.695312 275.910156 656.917969 285.203125 656.917969 C 294.5 656.917969 302.921875 660.695312 309.019531 666.777344 L 309.5625 667.285156 C 315.335938 673.332031 318.875 681.535156 318.875 690.597656 C 318.875 699.945312 315.101562 708.371094 309.019531 714.433594 Z M 644.65625 665.796875 L 645.199219 666.304688 C 650.972656 672.351562 654.511719 680.554688 654.511719 689.617188 C 654.511719 698.949219 650.753906 707.371094 644.65625 713.4375 C 638.574219 719.519531 630.132812 723.292969 620.839844 723.292969 C 611.546875 723.292969 603.125 719.519531 597.027344 713.4375 L 596.480469 712.925781 C 590.710938 706.882812 587.171875 698.65625 587.171875 689.597656 C 587.171875 680.265625 590.929688 671.839844 597.027344 665.777344 C 603.105469 659.695312 611.546875 655.917969 620.839844 655.917969 C 630.132812 655.9375 638.558594 659.714844 644.65625 665.796875 Z M 310.035156 492.878906 L 284.117188 424.652344 L 284.117188 411.523438 L 353.144531 411.523438 L 353.144531 488.578125 Z M 538.125 285.488281 L 469.097656 285.488281 L 469.097656 206.417969 L 538.125 206.417969 C 538.125 221.980469 538.125 251.445312 538.125 285.488281 Z M 561.613281 206.4375 L 630.625 206.4375 L 630.625 285.503906 L 561.59375 285.503906 L 561.59375 206.4375 Z M 469.113281 308.980469 L 538.144531 308.980469 C 538.144531 335.234375 538.144531 362.832031 538.144531 388.050781 L 469.113281 388.050781 Z M 445.644531 388.03125 L 376.632812 388.03125 L 376.632812 308.960938 L 445.644531 308.960938 Z M 445.644531 285.488281 L 376.632812 285.488281 L 376.632812 206.417969 L 445.644531 206.417969 Z M 353.144531 285.488281 L 284.117188 285.488281 L 284.117188 206.417969 L 353.144531 206.417969 Z M 353.144531 308.980469 L 353.144531 388.050781 L 284.117188 388.050781 L 284.117188 308.980469 Z M 260.644531 362.847656 L 240.171875 308.960938 L 260.644531 308.960938 Z M 376.613281 411.507812 L 445.625 411.507812 L 445.625 479.335938 L 376.613281 486.21875 Z M 469.113281 411.507812 L 538.144531 411.507812 C 538.144531 436.980469 538.144531 458.128906 538.144531 470.09375 L 469.113281 476.992188 Z M 561.613281 411.507812 L 630.625 411.507812 L 630.625 460.871094 L 561.59375 467.769531 L 561.59375 411.507812 Z M 561.613281 388.03125 L 561.613281 308.960938 L 630.625 308.960938 L 630.625 388.03125 Z M 654.113281 308.980469 L 706.914062 308.980469 L 695.75 388.050781 L 654.113281 388.050781 Z M 710.21875 285.488281 L 654.09375 285.488281 L 654.09375 206.417969 L 721.382812 206.417969 Z M 260.644531 206.4375 L 260.644531 285.503906 L 231.257812 285.503906 L 212.019531 234.886719 L 201.21875 206.457031 L 260.644531 206.457031 Z M 654.113281 458.53125 L 654.113281 411.507812 L 692.449219 411.507812 L 686.257812 455.316406 Z M 654.113281 458.53125 " fill-opacity="1" fill-rule="nonzero"/></g></svg>